<?xml version="1.0" encoding="utf-8"?>
<!-- Generator: Adobe Illustrator 22.1.0, SVG Export Plug-In . SVG Version: 6.00 Build 0)  -->
<svg version="1.1" id="Capa_1" xmlns="http://www.w3.org/2000/svg" xmlns:xlink="http://www.w3.org/1999/xlink" x="0px" y="0px"
	 viewBox="0 0 200 200" style="enable-background:new 0 0 200 200;" xml:space="preserve">
<style type="text/css">
	.st0{fill:#FFFFFF;}
</style>
<g>
	<g>
		<path class="st0" d="M183.4,162.1l-39-12.6c-0.9-0.3-1.9-0.5-2.9-0.5h-0.5l-8.2-11c-0.5-0.7-1.2-1.1-2.1-1.2c-0.1,0-0.3,0-0.4,0
			v-0.1h-3v-9.7c7.7-6,12.2-15.1,12.2-24.9V76.9c0.5,0,1-0.1,1.5-0.4c1-0.5,1.5-1.6,1.6-2.7V49.7l15.3-6.2v4.6
			c-3.4,0-6.1,2.7-6.1,6.1v18.3c0,3.4,2.7,6.1,6.1,6.1h6.1c3.4,0,6.1-2.7,6.1-6.1V54.2c0-3.4-2.7-6.1-6.1-6.1V39
			c0-1.2-0.7-2.3-1.8-2.8l-61-27.5c-0.8-0.4-1.7-0.4-2.5,0l-61,27.5c-1.5,0.7-2.2,2.5-1.5,4c0.3,0.7,0.9,1.3,1.6,1.6l19.4,7.9v24.1
			c0,1.7,1.4,3,3.1,3v25.1c0,9.7,4.5,18.9,12.2,24.9v9.7h-3v0.1c-0.1,0-0.3,0-0.4,0c-0.8,0.1-1.6,0.5-2.1,1.2l-8.2,11h-0.5
			c-1,0-1.9,0.1-2.8,0.5l-39.3,12.7c-4.7,1.8-7.7,6.3-7.7,11.3v15.2c0,1.7,1.4,3,3,3h176.9c1.7,0,3-1.4,3-3v-15.2
			C191.3,168.4,188.2,163.9,183.4,162.1L183.4,162.1z M163.8,54.5v18.3h-6.1V54.5H163.8z M129.8,144.2l5.6,7.4l-23.2,20.6l-7.7-7.8
			L129.8,144.2z M99.8,160.3l-21.4-17.1v-12.5c4.2,1.9,8.7,3,13.3,3h16.2c4.6,0,9.1-1,13.3-3v12.5L99.8,160.3z M59.8,36.2
			c-1.5,0.2-2.6,1.5-2.6,3v4.1L46.7,39l53.2-24l53.2,24l-10.5,4.3v-4.1c0-1.5-1.1-2.8-2.6-3l-39.6-6.1c-0.3,0-0.6,0-0.9,0L59.8,36.2
			z M63.1,48.3c0-0.2,0.1-0.3,0.1-0.5v-6l36.6-5.6l36.6,5.6v6c0,0.2,0,0.3,0.1,0.5h-0.1v20.8c-4.4-1.7-9-2.5-13.7-2.5
			c-7.6-0.1-15.1,2.2-21.2,6.7c-0.6,0.5-1.2,0.9-1.7,1.4c-0.5-0.5-1.1-1-1.7-1.4c-6.1-4.5-13.6-6.9-21.2-6.8
			c-4.7,0-9.3,0.8-13.7,2.5L63.1,48.3L63.1,48.3z M66.3,102.2V74.6c3.4-1.2,7-1.9,10.7-1.9c6.2-0.1,12.4,1.8,17.4,5.5
			c1.1,0.9,2.1,1.9,3,3c1,1.3,2.9,1.6,4.3,0.6c0.2-0.2,0.4-0.4,0.6-0.6c0.9-1.1,1.9-2.2,3-3c5.1-3.7,11.2-5.6,17.4-5.4
			c3.6,0,7.2,0.6,10.7,1.9v27.6c0,14.1-11.4,25.5-25.5,25.5H91.7C77.8,127.6,66.3,116.2,66.3,102.2L66.3,102.2z M69.9,144.2
			l25.4,20.3l-7.7,7.8l-23.2-20.6L69.9,144.2z M185.2,185.6H14.4v-12.1c0-2.4,1.4-4.6,3.7-5.6l39.1-12.7c0.3-0.1,0.6-0.1,0.9-0.1
			h0.9l26.6,23.6c1.2,1.1,3,1,4.2-0.1l10-10l10,10c1.1,1.1,3,1.2,4.2,0.1l26.6-23.6h0.9c0.3,0,0.6,0.1,0.9,0.2l38.9,12.6
			c2.3,0.9,3.8,3.1,3.8,5.6L185.2,185.6L185.2,185.6z"/>
	</g>
</g>
</svg>
