<?xml version="1.0" encoding="utf-8"?>
<!-- Generator: Adobe Illustrator 22.1.0, SVG Export Plug-In . SVG Version: 6.00 Build 0)  -->
<svg version="1.1" id="Capa_1" xmlns="http://www.w3.org/2000/svg" xmlns:xlink="http://www.w3.org/1999/xlink" x="0px" y="0px"
	 viewBox="0 0 200 200" style="enable-background:new 0 0 200 200;" xml:space="preserve">
<style type="text/css">
	.st0{fill:#FFFFFF;}
</style>
<g>
	<g>
		<g>
			<path class="st0" d="M173.4,26H26.6C13.5,26,2.8,36.7,2.8,49.8v100.4c0,13.1,10.6,23.8,23.8,23.8h146.8
				c13.1,0,23.8-10.6,23.8-23.8V49.9C197.2,36.8,186.5,26,173.4,26z M186.3,150.2c0,7.1-5.8,12.9-12.9,12.9H26.6
				c-7.1,0-12.9-5.8-12.9-12.9V49.9c0-7.1,5.8-12.9,12.9-12.9h146.8c7.1,0,12.9,5.8,12.9,12.9L186.3,150.2L186.3,150.2z"/>
			<path class="st0" d="M125.4,98.7l47.5-42.6c2.3-2,2.4-5.4,0.4-7.6c-2-2.3-5.4-2.4-7.6-0.4l-65.6,58.8L87.3,95.5l-0.1-0.1
				c-0.3-0.3-0.5-0.5-0.9-0.8l-52-46.5c-2.3-2-5.7-1.8-7.6,0.4c-2,2.3-1.8,5.7,0.4,7.6l48,43L27.3,144c-2.1,2-2.3,5.5-0.2,7.6
				c1.1,1.1,2.6,1.7,4,1.7c1.3,0,2.7-0.4,3.7-1.4l48.6-45.5l13.2,11.8c1.1,1,2.4,1.4,3.7,1.4c1.3,0,2.6-0.4,3.7-1.4l13.5-12.1
				l48.4,45.9c1.1,1,2.4,1.5,3.8,1.5c1.4,0,2.9-0.5,4-1.7c2-2.1,1.9-5.6-0.2-7.6L125.4,98.7z"/>
		</g>
	</g>
</g>
</svg>
