<?xml version="1.0" encoding="utf-8"?>
<!-- Generator: Adobe Illustrator 22.1.0, SVG Export Plug-In . SVG Version: 6.00 Build 0)  -->
<svg version="1.1" id="Capa_1" xmlns="http://www.w3.org/2000/svg" xmlns:xlink="http://www.w3.org/1999/xlink" x="0px" y="0px"
	 viewBox="0 0 200 200" style="enable-background:new 0 0 200 200;" xml:space="preserve">
<style type="text/css">
	.st0{fill:#FFFFFF;}
</style>
<g>
	<path class="st0" d="M68.1,83.2c-2.1,2.1-2.1,5.4,0,7.5l28.2,28.2c1,1,2.4,1.6,3.7,1.6c1.3,0,2.7-0.5,3.7-1.6l28.2-28.2
		c2.1-2.1,2.1-5.4,0-7.5s-5.4-2.1-7.5,0l-19.1,19.1V11c0-3-2.4-5.3-5.3-5.3c-3,0-5.3,2.4-5.3,5.3v91.3L75.6,83.2
		C73.6,81.1,70.2,81.1,68.1,83.2L68.1,83.2z"/>
	<path class="st0" d="M187,126.8l-18.5-67c-0.4-1.5-1.5-2.8-2.9-3.4l-0.5-0.2c-0.7-0.3-1.5-0.5-2.2-0.5h-33.4c-3,0-5.3,2.4-5.3,5.3
		s2.4,5.3,5.3,5.3h29.8l15.6,56.7h-41.4c-3,0-5.3,2.4-5.3,5.3v4.8c0,7.1-5.7,12.8-12.8,12.8H82.9c-7.1,0-12.8-5.7-12.8-12.8v-4.8
		c0-3-2.4-5.3-5.3-5.3H25l15.7-56.8h29.8c3,0,5.3-2.4,5.3-5.3s-2.4-5.3-5.3-5.3H37.1c-0.7,0-1.5,0.2-2.2,0.5l-0.5,0.2
		c-1.4,0.7-2.5,1.9-2.9,3.4l-18.5,67c-0.1,0.5-0.2,0.9-0.2,1.4v27.9c0,21.2,17.2,38.4,38.4,38.4h97.5c21.2,0,38.4-17.2,38.4-38.4
		v-27.8C187.2,127.7,187.2,127.2,187,126.8L187,126.8z M176.6,155.9c0,15.3-12.5,27.7-27.7,27.7H51.4c-15.3,0-27.7-12.5-27.7-27.7
		v-22.4h36.1c0.3,12.6,10.7,22.8,23.4,22.8h32.5c12.7,0,23.1-10.2,23.4-22.8h37.7L176.6,155.9L176.6,155.9z"/>
</g>
</svg>
