<?xml version="1.0" encoding="utf-8"?>
<!-- Generator: Adobe Illustrator 22.1.0, SVG Export Plug-In . SVG Version: 6.00 Build 0)  -->
<svg version="1.1" id="Capa_1" xmlns="http://www.w3.org/2000/svg" xmlns:xlink="http://www.w3.org/1999/xlink" x="0px" y="0px"
	 viewBox="0 0 200 200" style="enable-background:new 0 0 200 200;" xml:space="preserve">
<style type="text/css">
	.st0{fill:#FFFFFF;}
</style>
<g>
	<path class="st0" d="M171.9,20.9h-8.8V6.2h-14.7v14.7H51.7V6.2H37v14.7h-8.8c-12.1,0-22,9.9-22,22v128.9c0,12.1,9.9,22,22,22h143.6
		c12.1,0,22-9.9,22-22V42.9C193.9,30.8,184.1,20.9,171.9,20.9z M28.4,35.6h8.8v14.7h14.7V35.6h96.7v14.7h14.7V35.6h8.8
		c4,0,7.3,3.3,7.3,7.3v17.6H21V42.9C21,38.9,24.3,35.6,28.4,35.6z M171.9,179.1H28.3c-4,0-7.3-3.3-7.3-7.3V75.1h158.2v96.7
		C179.3,175.9,176,179.1,171.9,179.1z"/>
	<rect x="34.2" y="90.5" class="st0" width="14.7" height="14.7"/>
	<rect x="63.5" y="90.5" class="st0" width="14.7" height="14.7"/>
	<rect x="92.8" y="90.5" class="st0" width="14.7" height="14.7"/>
	<rect x="122.1" y="90.5" class="st0" width="14.7" height="14.7"/>
	<rect x="151.4" y="90.5" class="st0" width="14.7" height="14.7"/>
	<rect x="34.2" y="119.8" class="st0" width="14.7" height="14.7"/>
	<rect x="63.5" y="119.8" class="st0" width="14.7" height="14.7"/>
	<rect x="92.8" y="119.8" class="st0" width="14.7" height="14.7"/>
	<rect x="122.1" y="119.8" class="st0" width="14.7" height="14.7"/>
	<rect x="34.2" y="149.1" class="st0" width="14.7" height="14.7"/>
	<rect x="63.5" y="149.1" class="st0" width="14.7" height="14.7"/>
	<rect x="92.8" y="149.1" class="st0" width="14.7" height="14.7"/>
	<rect x="122.1" y="149.1" class="st0" width="14.7" height="14.7"/>
	<rect x="151.4" y="119.8" class="st0" width="14.7" height="14.7"/>
</g>
</svg>
