<?xml version="1.0" encoding="utf-8"?>
<!-- Generator: Adobe Illustrator 22.1.0, SVG Export Plug-In . SVG Version: 6.00 Build 0)  -->
<svg version="1.1" id="Capa_1" xmlns="http://www.w3.org/2000/svg" xmlns:xlink="http://www.w3.org/1999/xlink" x="0px" y="0px"
	 viewBox="0 0 200 200" style="enable-background:new 0 0 200 200;" xml:space="preserve">
<style type="text/css">
	.st0{fill:#FFFFFF;}
</style>
<path class="st0" d="M173.9,185.9h-58.5v-55.7H84.8v55.7H26.3v-70.5h-14c-3.9,0-7.4-2.4-8.9-6C2,105.7,2.9,101.6,5.7,99l87.8-82.3
	c3.7-3.4,9.4-3.4,13,0L194.3,99c2.9,2.7,3.8,6.8,2.3,10.4c-1.4,3.7-4.9,6-8.9,6h-14v70.5H173.9z M125.6,175.7h38v-70.5H186l-86-80.6
	l-86,80.6h22.4v70.5h38V120h51.1L125.6,175.7L125.6,175.7z"/>
</svg>
