<?xml version="1.0" encoding="utf-8"?>
<!-- Generator: Adobe Illustrator 22.1.0, SVG Export Plug-In . SVG Version: 6.00 Build 0)  -->
<svg version="1.1" id="Capa_1" xmlns="http://www.w3.org/2000/svg" xmlns:xlink="http://www.w3.org/1999/xlink" x="0px" y="0px"
	 viewBox="0 0 200 200" style="enable-background:new 0 0 200 200;" xml:space="preserve">
<style type="text/css">
	.st0{fill:#FFFFFF;}
	.st1{font-family:'Arial-Black';}
	.st2{font-size:64.6934px;}
	.st3{font-size:73.9677px;}
</style>
<g>
	<path class="st0" d="M191.5,9H74v69.6c-2.9-0.5-5.8-0.7-8.8-0.7c-15.1,0-29.3,5.9-40,16.6c-10.8,10.7-16.7,24.9-16.7,40
		s5.9,29.3,16.6,40c10.7,10.7,24.9,16.6,40,16.6c15.1,0,29.3-5.9,40-16.6c7-7,11.9-15.5,14.5-24.8h71.8V9H191.5z M97.6,166.9
		c-8.7,8.7-20.2,13.4-32.5,13.4c-12.3,0-23.8-4.8-32.5-13.4c-8.7-8.7-13.4-20.2-13.4-32.5s4.8-23.8,13.4-32.5
		c8.7-8.7,20.2-13.4,32.5-13.4s23.8,4.8,32.5,13.4c8.7,8.7,13.4,20.2,13.4,32.5C111,146.8,106.3,158.3,97.6,166.9z M180.8,139.1
		h-59.2c0.1-1.5,0-9.6-0.3-12.1h6.3v-10.7h-8.8c-2.8-8.1-7.3-15.5-13.6-21.7c-5.9-5.9-12.9-10.3-20.5-13.1V19.8h96.1V139.1
		L180.8,139.1z"/>
	<path class="st0" d="M170.1,30.5H95.4v32.2h74.7L170.1,30.5L170.1,30.5z M159.3,51.8h-53.2V41.2h53.2V51.8z"/>
	<rect x="116.8" y="73.3" class="st0" width="10.7" height="10.7"/>
	<rect x="138.1" y="73.3" class="st0" width="10.7" height="10.7"/>
	<rect x="159.3" y="73.3" class="st0" width="10.7" height="10.7"/>
	<rect x="116.8" y="94.8" class="st0" width="10.7" height="10.7"/>
	<rect x="138.1" y="94.8" class="st0" width="10.7" height="10.7"/>
	<rect x="95.4" y="73.3" class="st0" width="10.7" height="10.7"/>
	<rect x="138.1" y="116.2" class="st0" width="10.7" height="10.7"/>
	<rect x="159.3" y="94.8" class="st0" width="10.7" height="31.8"/>
	<text transform="matrix(1 0 0 1 28.3398 157.475)" class="st0 st1 st2">S</text>
	<text transform="matrix(1 0 0 1 75.0398 157.475)" class="st0 st1 st3">/</text>
</g>
</svg>
