<svg id="Capa_1" data-name="Capa 1" xmlns="http://www.w3.org/2000/svg" viewBox="0 0 158.16 183.98"><defs><style>.cls-1{fill:#fff;}</style></defs><title>tramite</title><path class="cls-1" d="M179,160.79l-19.3-82.2v-55a3.16,3.16,0,0,0-3.2-3.2H146l-2.3-9.9a3.19,3.19,0,0,0-3.8-2.4l-52,12.2h-51a3.16,3.16,0,0,0-3.2,3.2v9.6l-10.3,2.4a3.52,3.52,0,0,0-2,1.4,3.36,3.36,0,0,0-.4,2.4l12.7,53.8v84.7a3.16,3.16,0,0,0,3.2,3.2H54.4l2,8.5a3.52,3.52,0,0,0,1.4,2,3.37,3.37,0,0,0,1.7.5,1.7,1.7,0,0,0,.7-.1L106.5,181h50a3.16,3.16,0,0,0,3.2-3.2v-9.3l17-4a3.05,3.05,0,0,0,2.3-3.7Zm-25.7-134v24.8l-5.8-24.8Zm-113.2,0H60.9l-20.8,4.9Zm0,147.9v-54.6l12.8,54.6Zm113.2,0H133.5l19.8-4.7Zm-91.5,10.4L28,41.09l110.2-26,33.9,144Z" transform="translate(-20.92 -8.01)"/><path class="cls-1" d="M83.4,92.19l-3-12.7a15.91,15.91,0,0,0-6.9-9.7,21.16,21.16,0,0,0-2.1-1.1A10.38,10.38,0,0,0,72.6,67a15.89,15.89,0,0,0,2-12.2,16.27,16.27,0,0,0-19.5-12.1A16.53,16.53,0,0,0,45,49.89a15.89,15.89,0,0,0-2,12.2,16.29,16.29,0,0,0,9.1,11.1,15.52,15.52,0,0,0-3.3,13.7l3,12.7a3,3,0,0,0,3.1,2.4,1.7,1.7,0,0,0,.7-.1l25.4-6a3.52,3.52,0,0,0,2-1.4,3,3,0,0,0,.4-2.3ZM49.2,60.69a9.57,9.57,0,0,1,1.2-7.4,10.08,10.08,0,0,1,6.1-4.4,9.08,9.08,0,0,1,2.3-.3,9.92,9.92,0,0,1,9.6,7.6,9.57,9.57,0,0,1-1.2,7.4A10.08,10.08,0,0,1,61.1,68h0a9.87,9.87,0,0,1-11.9-7.3ZM57.3,95,55,85.39a9.25,9.25,0,0,1,6.8-11.1l1.3-.3a7.49,7.49,0,0,1,2.1-.2,9,9,0,0,1,4.8,1.4,8.83,8.83,0,0,1,4.1,5.7l2.3,9.6Z" transform="translate(-20.92 -8.01)"/><path class="cls-1" d="M115,157.29a3.19,3.19,0,0,0-3.8-2.4L72.5,164a3.19,3.19,0,0,0-2.4,3.8,3,3,0,0,0,3.1,2.4,1.7,1.7,0,0,0,.7-.1l38.7-9.1a3,3,0,0,0,2.4-3.7Z" transform="translate(-20.92 -8.01)"/><path class="cls-1" d="M153.7,133.59a3.19,3.19,0,0,0-3.8-2.4l-80.6,19a3.19,3.19,0,0,0-2.4,3.8,3,3,0,0,0,3.1,2.4,1.7,1.7,0,0,0,.7-.1l80.6-19a3,3,0,0,0,2.4-3.7Z" transform="translate(-20.92 -8.01)"/><path class="cls-1" d="M150.4,119.79a3.19,3.19,0,0,0-3.8-2.4l-80.6,19a3.19,3.19,0,0,0-2.4,3.8,3,3,0,0,0,3.1,2.4,1.7,1.7,0,0,0,.7-.1l80.6-19a3,3,0,0,0,2.4-3.7Z" transform="translate(-20.92 -8.01)"/><path class="cls-1" d="M147.2,106a3.19,3.19,0,0,0-3.8-2.4l-80.6,19a3.19,3.19,0,0,0-2.4,3.8,3,3,0,0,0,3.1,2.4,1.7,1.7,0,0,0,.7-.1l80.6-19a3,3,0,0,0,2.4-3.7Z" transform="translate(-20.92 -8.01)"/><path class="cls-1" d="M143.9,92.19a3.19,3.19,0,0,0-3.8-2.4l-80.6,19a3.19,3.19,0,0,0-2.4,3.8,3,3,0,0,0,3.1,2.4,1.7,1.7,0,0,0,.7-.1l80.6-19a3,3,0,0,0,2.4-3.7Z" transform="translate(-20.92 -8.01)"/><path class="cls-1" d="M138.9,70.79a3.19,3.19,0,0,0-3.8-2.4l-42.6,10a3.19,3.19,0,0,0-2.4,3.8,3,3,0,0,0,3.1,2.4,1.7,1.7,0,0,0,.7-.1l42.6-10a3,3,0,0,0,2.4-3.7Z" transform="translate(-20.92 -8.01)"/><path class="cls-1" d="M135.7,57a3.19,3.19,0,0,0-3.8-2.4l-42.6,10a3.19,3.19,0,0,0-2.4,3.8,3,3,0,0,0,3.1,2.4,1.7,1.7,0,0,0,.7-.1l42.6-10a3,3,0,0,0,2.4-3.7Z" transform="translate(-20.92 -8.01)"/><path class="cls-1" d="M107.5,42.39a3.19,3.19,0,0,0-3.8-2.4l-19.2,4.5a3.19,3.19,0,0,0-2.4,3.8,3,3,0,0,0,3.1,2.4,1.7,1.7,0,0,0,.7-.1l19.2-4.5a3,3,0,0,0,2.4-3.7Z" transform="translate(-20.92 -8.01)"/></svg>