<?xml version="1.0" encoding="utf-8"?>
<!-- Generator: Adobe Illustrator 22.1.0, SVG Export Plug-In . SVG Version: 6.00 Build 0)  -->
<svg version="1.1" id="Capa_1" xmlns="http://www.w3.org/2000/svg" xmlns:xlink="http://www.w3.org/1999/xlink" x="0px" y="0px"
	 viewBox="0 0 200 200" style="enable-background:new 0 0 200 200;" xml:space="preserve">
<style type="text/css">
	.st0{fill:#FFFFFF;}
	.st1{fill:#B3B3B3;}
</style>
<g>
	<g>
		<g>
			<circle class="st0" cx="180.5" cy="130.9" r="6.9"/>
			<circle class="st0" cx="185.1" cy="113.5" r="6.9"/>
			<circle class="st0" cx="186.1" cy="95.5" r="6.9"/>
			<circle class="st0" cx="183.2" cy="77.7" r="6.9"/>
			<circle class="st0" cx="166.8" cy="120.4" r="6.9"/>
			<circle class="st0" cx="169.7" cy="103.7" r="6.9"/>
			<circle class="st0" cx="168.5" cy="86.7" r="6.9"/>
			<circle class="st0" cx="135.8" cy="103.4" r="6.9"/>
			<circle class="st0" cx="152.5" cy="108.3" r="6.9"/>
			<circle class="st0" cx="152.5" cy="91.7" r="6.9"/>
		</g>
		<g>
			<g>
				<circle class="st0" cx="125.7" cy="74.4" r="7.3"/>
				<circle class="st0" cx="111.7" cy="66.1" r="6.9"/>
				<circle class="st0" cx="95.7" cy="64.5" r="6.9"/>
				<circle class="st0" cx="80.5" cy="70" r="6.9"/>
				<circle class="st0" cx="69.3" cy="81.6" r="6.9"/>
				<circle class="st0" cx="64.4" cy="96.9" r="6.9"/>
				<circle class="st0" cx="66.6" cy="112.9" r="6.9"/>
				<circle class="st0" cx="75.6" cy="126.2" r="6.9"/>
				<circle class="st0" cx="89.6" cy="134.3" r="6.9"/>
				<circle class="st0" cx="105.7" cy="135.4" r="6.9"/>
				<circle class="st0" cx="120.6" cy="129.4" r="6.9"/>
				<circle class="st0" cx="137.6" cy="62.5" r="6.9"/>
				<circle class="st0" cx="124.2" cy="52.7" r="6.9"/>
				<circle class="st0" cx="108.4" cy="47.6" r="6.9"/>
				<circle class="st0" cx="91.7" cy="47.6" r="6.9"/>
				<circle class="st0" cx="75.9" cy="52.7" r="6.9"/>
				<circle class="st0" cx="62.5" cy="62.5" r="6.9"/>
				<circle class="st0" cx="52.7" cy="75.9" r="6.9"/>
				<circle class="st0" cx="47.6" cy="91.7" r="6.9"/>
				<circle class="st0" cx="47.6" cy="108.3" r="6.9"/>
				<circle class="st0" cx="52.7" cy="124.1" r="6.9"/>
				<circle class="st0" cx="62.5" cy="137.6" r="6.9"/>
				<circle class="st0" cx="75.9" cy="147.3" r="6.9"/>
				<circle class="st0" cx="91.7" cy="152.5" r="6.9"/>
				<circle class="st0" cx="108.4" cy="152.5" r="6.9"/>
				<circle class="st0" cx="124.2" cy="147.3" r="6.9"/>
				<circle class="st0" cx="137.6" cy="137.6" r="6.9"/>
			</g>
		</g>
	</g>
	<g>
		<g>
			<circle class="st1" cx="160.9" cy="160.9" r="6.9"/>
			<circle class="st1" cx="172.3" cy="146.9" r="6.9"/>
			<circle class="st1" cx="176.8" cy="60.9" r="6.9"/>
			<circle class="st1" cx="167" cy="45.8" r="6.9"/>
			<circle class="st1" cx="154.2" cy="33.1" r="6.9"/>
			<circle class="st1" cx="139.1" cy="23.3" r="6.9"/>
			<circle class="st1" cx="122.3" cy="16.8" r="6.9"/>
			<circle class="st1" cx="104.6" cy="14" r="6.9"/>
			<circle class="st1" cx="86.6" cy="14.9" r="6.9"/>
			<circle class="st1" cx="69.2" cy="19.6" r="6.9"/>
			<circle class="st1" cx="53.1" cy="27.8" r="6.9"/>
			<circle class="st1" cx="39.1" cy="39.1" r="6.9"/>
			<circle class="st1" cx="27.8" cy="53.1" r="6.9"/>
			<circle class="st1" cx="19.6" cy="69.1" r="6.9"/>
			<circle class="st1" cx="15" cy="86.5" r="6.9"/>
			<circle class="st1" cx="14" cy="104.5" r="6.9"/>
			<circle class="st1" cx="16.9" cy="122.3" r="6.9"/>
			<circle class="st1" cx="23.3" cy="139.1" r="6.9"/>
			<circle class="st1" cx="33.1" cy="154.2" r="6.9"/>
			<circle class="st1" cx="45.8" cy="166.9" r="6.9"/>
			<circle class="st1" cx="60.9" cy="176.8" r="6.9"/>
			<circle class="st1" cx="77.8" cy="183.2" r="6.9"/>
			<circle class="st1" cx="95.5" cy="186" r="6.9"/>
			<circle class="st1" cx="113.5" cy="185.1" r="6.9"/>
			<circle class="st1" cx="130.9" cy="180.4" r="6.9"/>
			<circle class="st1" cx="147" cy="172.2" r="6.9"/>
			<circle class="st1" cx="101.5" cy="80.7" r="6.9"/>
			<circle class="st1" cx="85.3" cy="87.6" r="6.9"/>
			<circle class="st1" cx="81" cy="103.4" r="6.9"/>
			<circle class="st1" cx="90.4" cy="116.7" r="6.9"/>
			<circle class="st1" cx="106.7" cy="118.2" r="6.9"/>
			<circle class="st1" cx="118.2" cy="106.6" r="6.9"/>
			<circle class="st1" cx="116.8" cy="90" r="6.9"/>
			<circle class="st1" cx="100" cy="100" r="6.9"/>
			<circle class="st1" cx="149.4" cy="149.3" r="6.9"/>
			<circle class="st1" cx="159.8" cy="135.9" r="6.9"/>
			<circle class="st1" cx="163.3" cy="70.5" r="6.9"/>
			<circle class="st1" cx="154.3" cy="56.1" r="6.9"/>
			<circle class="st1" cx="142" cy="44.3" r="6.9"/>
			<circle class="st1" cx="127.3" cy="35.8" r="6.9"/>
			<circle class="st1" cx="111" cy="31.1" r="6.9"/>
			<circle class="st1" cx="94" cy="30.5" r="6.9"/>
			<circle class="st1" cx="77.3" cy="34.1" r="6.9"/>
			<circle class="st1" cx="62.1" cy="41.5" r="6.9"/>
			<circle class="st1" cx="49" cy="52.4" r="6.9"/>
			<circle class="st1" cx="39" cy="66.2" r="6.9"/>
			<circle class="st1" cx="32.7" cy="82" r="6.9"/>
			<circle class="st1" cx="30.3" cy="98.8" r="6.9"/>
			<circle class="st1" cx="32.1" cy="115.7" r="6.9"/>
			<circle class="st1" cx="37.9" cy="131.7" r="6.9"/>
			<circle class="st1" cx="47.4" cy="145.8" r="6.9"/>
			<circle class="st1" cx="60" cy="157.2" r="6.9"/>
			<circle class="st1" cx="75" cy="165.1" r="6.9"/>
			<circle class="st1" cx="91.5" cy="169.3" r="6.9"/>
			<circle class="st1" cx="108.6" cy="169.3" r="6.9"/>
			<circle class="st1" cx="124.4" cy="165.1" r="6.9"/>
			<circle class="st1" cx="137.6" cy="158.5" r="6.9"/>
		</g>
		<circle class="st1" cx="130.7" cy="118.2" r="6.9"/>
		<circle class="st1" cx="133" cy="88" r="7.3"/>
		<circle class="st1" cx="147.4" cy="124.1" r="6.9"/>
		<circle class="st1" cx="148" cy="74.7" r="7.3"/>
	</g>
</g>
</svg>
