<?xml version="1.0" encoding="utf-8"?>
<!-- Generator: Adobe Illustrator 22.1.0, SVG Export Plug-In . SVG Version: 6.00 Build 0)  -->
<svg version="1.1" id="Capa_1" xmlns="http://www.w3.org/2000/svg" xmlns:xlink="http://www.w3.org/1999/xlink" x="0px" y="0px"
	 viewBox="0 0 460 500" style="enable-background:new 0 0 460 500;" xml:space="preserve">
<style type="text/css">
	.st0{fill:#123D9E;}
</style>
<g>
	<g>
		<path class="st0" d="M89.3,461.2h181c32.3,0,58.6-26.3,58.6-58.6v-88.2c0-6.9-5.6-12.4-12.4-12.4s-12.4,5.6-12.4,12.4v88.2
			c0,18.6-15.1,33.8-33.8,33.8h-181c-18.6,0-33.8-15.2-33.8-33.8V97.4c0-18.6,15.1-33.8,33.8-33.8h181c18.6,0,33.8,15.2,33.8,33.8
			v85.3c0,6.9,5.6,12.4,12.4,12.4s12.4-5.6,12.4-12.4V97.4c0-32.3-26.3-58.6-58.6-58.6h-181C57,38.7,30.7,65,30.7,97.4v305.2
			C30.7,434.9,57,461.2,89.3,461.2z"/>
		<path class="st0" d="M136.3,256.2h298.2c4.9,0,9.3-2.8,11.3-7.2c2-4.4,1.3-9.6-1.9-13.3l-74.6-87c-4.5-5.2-12.3-5.8-17.5-1.3
			c-5.2,4.5-5.8,12.3-1.3,17.5l57,66.5H136.3c-6.9,0-12.4,5.6-12.4,12.4C123.9,250.6,129.5,256.2,136.3,256.2z"/>
		<path class="st0" d="M360,330.8c3.2,0,6.4-1.2,8.8-3.6l74.6-74.6c4.9-4.9,4.9-12.7,0-17.6c-4.9-4.9-12.7-4.9-17.6,0l-74.6,74.6
			c-4.9,4.9-4.9,12.7,0,17.6C353.7,329.6,356.8,330.8,360,330.8z"/>
	</g>
</g>
</svg>
