<?xml version="1.0" encoding="utf-8"?>
<!-- Generator: Adobe Illustrator 22.1.0, SVG Export Plug-In . SVG Version: 6.00 Build 0)  -->
<svg version="1.1" id="Capa_1" xmlns="http://www.w3.org/2000/svg" xmlns:xlink="http://www.w3.org/1999/xlink" x="0px" y="0px"
	 viewBox="0 0 1920 609" style="enable-background:new 0 0 1920 609;" xml:space="preserve">
<style type="text/css">
	.st0{fill:#EAC338;}
	.st1{fill:#DDDDDC;}
	.st2{fill:#1A52B1;}
	.st3{fill:#123D9E;}
</style>
<g>
	<g>
		<g>
			<g>
				<g>
					<circle class="st0" cx="587.6" cy="373.8" r="13.2"/>
				</g>
				<g>
					<circle class="st0" cx="596.6" cy="340.4" r="13.2"/>
				</g>
				<g>
					<circle class="st0" cx="598.4" cy="305.8" r="13.2"/>
				</g>
				<g>
					<circle class="st0" cx="593" cy="271.7" r="13.2"/>
				</g>
				<g>
					<circle class="st0" cx="561.3" cy="353.7" r="13.2"/>
				</g>
				<g>
					<circle class="st0" cx="567" cy="321.5" r="13.2"/>
				</g>
				<g>
					<circle class="st0" cx="564.7" cy="288.9" r="13.2"/>
				</g>
				<g>
					<circle class="st0" cx="501.8" cy="320.9" r="13.2"/>
				</g>
				<g>
					<circle class="st0" cx="533.9" cy="330.5" r="13.2"/>
				</g>
				<g>
					<circle class="st0" cx="533.9" cy="298.5" r="13.2"/>
				</g>
			</g>
		</g>
		<g>
			<g>
				<circle class="st1" cx="482.3" cy="265.3" r="14"/>
				<circle class="st1" cx="455.5" cy="249.4" r="13.2"/>
				<circle class="st1" cx="424.7" cy="246.2" r="13.2"/>
				<circle class="st1" cx="395.6" cy="256.8" r="13.2"/>
				<circle class="st1" cx="374.1" cy="279" r="13.2"/>
				<circle class="st1" cx="364.5" cy="308.5" r="13.2"/>
				<circle class="st1" cx="368.8" cy="339.2" r="13.2"/>
				<circle class="st1" cx="386.1" cy="364.8" r="13.2"/>
				<circle class="st1" cx="413" cy="380.3" r="13.2"/>
				<circle class="st1" cx="443.9" cy="382.5" r="13.2"/>
				<circle class="st1" cx="472.6" cy="370.9" r="13.2"/>
				<circle class="st1" cx="505.2" cy="242.3" r="13.2"/>
				<circle class="st1" cx="479.4" cy="223.6" r="13.2"/>
				<circle class="st1" cx="449" cy="213.7" r="13.2"/>
				<circle class="st1" cx="417.1" cy="213.7" r="13.2"/>
				<circle class="st1" cx="386.8" cy="223.6" r="13.2"/>
				<circle class="st1" cx="360.9" cy="242.3" r="13.2"/>
				<circle class="st1" cx="342.2" cy="268.2" r="13.2"/>
				<circle class="st1" cx="332.3" cy="298.5" r="13.2"/>
				<circle class="st1" cx="332.3" cy="330.5" r="13.2"/>
				<circle class="st1" cx="342.2" cy="360.8" r="13.2"/>
				<circle class="st1" cx="360.9" cy="386.7" r="13.2"/>
				<circle class="st1" cx="386.8" cy="405.4" r="13.2"/>
				<circle class="st1" cx="417.1" cy="415.3" r="13.2"/>
				<circle class="st1" cx="449" cy="415.3" r="13.2"/>
				<circle class="st1" cx="479.4" cy="405.4" r="13.2"/>
				<circle class="st1" cx="505.2" cy="386.7" r="13.2"/>
			</g>
		</g>
	</g>
	<g>
		<g>
			<g>
				<circle class="st2" cx="550.1" cy="431.5" r="13.2"/>
				<circle class="st2" cx="571.9" cy="404.6" r="13.2"/>
				<circle class="st2" cx="580.6" cy="239.4" r="13.2"/>
				<circle class="st2" cx="561.7" cy="210.3" r="13.2"/>
				<circle class="st2" cx="537.2" cy="185.9" r="13.2"/>
				<circle class="st2" cx="508.2" cy="167" r="13.2"/>
				<circle class="st2" cx="475.9" cy="154.6" r="13.2"/>
				<circle class="st2" cx="441.7" cy="149.2" r="13.2"/>
				<circle class="st2" cx="407.2" cy="151" r="13.2"/>
				<circle class="st2" cx="373.8" cy="160" r="13.2"/>
				<circle class="st2" cx="342.9" cy="175.7" r="13.2"/>
				<circle class="st2" cx="316.1" cy="197.5" r="13.2"/>
				<circle class="st2" cx="294.3" cy="224.4" r="13.2"/>
				<circle class="st2" cx="278.6" cy="255.2" r="13.2"/>
				<circle class="st2" cx="269.6" cy="288.6" r="13.2"/>
				<circle class="st2" cx="267.8" cy="323.2" r="13.2"/>
				<circle class="st2" cx="273.2" cy="357.3" r="13.2"/>
				<circle class="st2" cx="285.6" cy="389.6" r="13.2"/>
				<circle class="st2" cx="304.5" cy="418.7" r="13.2"/>
				<circle class="st2" cx="328.9" cy="443.1" r="13.2"/>
				<circle class="st2" cx="357.9" cy="462" r="13.2"/>
				<circle class="st2" cx="390.2" cy="474.4" r="13.2"/>
				<circle class="st2" cx="424.4" cy="479.8" r="13.2"/>
				<circle class="st2" cx="459" cy="478" r="13.2"/>
				<circle class="st2" cx="492.4" cy="469" r="13.2"/>
				<circle class="st2" cx="523.2" cy="453.3" r="13.2"/>
				<circle class="st2" cx="435.8" cy="277.4" r="13.2"/>
				<circle class="st2" cx="404.7" cy="290.6" r="13.2"/>
				<circle class="st2" cx="396.5" cy="320.9" r="13.2"/>
				<circle class="st2" cx="414.5" cy="346.6" r="13.2"/>
				<circle class="st2" cx="445.8" cy="349.4" r="13.2"/>
				<circle class="st2" cx="468" cy="327.2" r="13.2"/>
				<circle class="st2" cx="465.2" cy="295.3" r="13.2"/>
				<circle class="st2" cx="433.1" cy="314.5" r="13.3"/>
				<circle class="st2" cx="527.9" cy="409.3" r="13.2"/>
				<circle class="st2" cx="548" cy="383.5" r="13.2"/>
				<circle class="st2" cx="554.6" cy="257.8" r="13.2"/>
				<circle class="st2" cx="537.3" cy="230.1" r="13.2"/>
				<circle class="st2" cx="513.8" cy="207.4" r="13.2"/>
				<circle class="st2" cx="485.5" cy="191.1" r="13.2"/>
				<circle class="st2" cx="454.1" cy="182.1" r="13.2"/>
				<circle class="st2" cx="421.4" cy="180.9" r="13.2"/>
				<circle class="st2" cx="389.4" cy="187.7" r="13.2"/>
				<circle class="st2" cx="360.1" cy="202.1" r="13.2"/>
				<circle class="st2" cx="335" cy="223.1" r="13.2"/>
				<circle class="st2" cx="315.8" cy="249.5" r="13.2"/>
				<circle class="st2" cx="303.6" cy="279.8" r="13.2"/>
				<circle class="st2" cx="299" cy="312.2" r="13.2"/>
				<circle class="st2" cx="302.5" cy="344.7" r="13.2"/>
				<circle class="st2" cx="313.6" cy="375.4" r="13.2"/>
				<circle class="st2" cx="331.9" cy="402.5" r="13.2"/>
				<circle class="st2" cx="356.2" cy="424.3" r="13.2"/>
				<circle class="st2" cx="385" cy="439.7" r="13.2"/>
				<circle class="st2" cx="416.7" cy="447.6" r="13.2"/>
				<circle class="st2" cx="449.4" cy="447.6" r="13.2"/>
				<circle class="st2" cx="479.9" cy="439.7" r="13.2"/>
				<circle class="st2" cx="505.3" cy="426.8" r="13.2"/>
			</g>
			<circle class="st2" cx="492" cy="349.4" r="13.2"/>
			<circle class="st2" cx="496.3" cy="291.4" r="14"/>
			<circle class="st2" cx="524" cy="360.8" r="13.2"/>
			<circle class="st2" cx="525.3" cy="265.9" r="14"/>
		</g>
	</g>
</g>
<g>
	<path class="st3" d="M811.2,359c-4.3,2.1-9.1,3.8-14.3,5c-5.3,1.3-11.7,1.9-19.2,1.9c-6.5,0-12.5-1.1-17.9-3.2
		c-5.4-2.2-10-5.2-13.9-9.2c-3.8-4-6.8-8.8-8.9-14.6c-2.1-5.7-3.2-12.2-3.2-19.3c0-8.2,1.4-16.3,4.3-24.4
		c2.9-8.1,7.1-15.3,12.8-21.7c5.6-6.4,12.5-11.5,20.6-15.5c8.1-4,17.5-6,28.1-6c5,0,10,0.6,14.9,1.7c4.9,1.2,10,3.2,15.4,6.1
		l-8.8,19.1c-4.4-2.3-8.4-3.9-11.8-4.7c-3.5-0.8-7.2-1.3-11.2-1.3c-6,0-11.4,1.2-16.1,3.6c-4.8,2.4-8.9,5.7-12.3,9.8
		c-3.4,4.2-6,9-7.8,14.4c-1.8,5.5-2.7,11.2-2.7,17.3c0,9.2,2,16,6.1,20.2c4,4.2,9.8,6.3,17.4,6.3c5,0,9.7-0.5,13.9-1.6
		c4.3-1,8.2-2.4,11.9-4.1L811.2,359z"/>
	<path class="st3" d="M860.3,366c-5.6,0-10.4-0.8-14.5-2.5c-4.1-1.7-7.5-4-10.2-7.1c-2.7-3-4.7-6.6-6.1-10.8c-1.4-4.1-2-8.7-2-13.8
		c0-6.3,1-12.6,3.1-18.9c2-6.3,5.1-12,9.1-17c4-5,8.9-9.2,14.7-12.4c5.8-3.2,12.4-4.8,19.9-4.8c5.5,0,10.3,0.8,14.4,2.5
		c4.1,1.7,7.6,4,10.2,7.1c2.7,3,4.7,6.6,6.1,10.8c1.4,4.2,2,8.7,2,13.8c0,6.3-1,12.6-3,18.9c-2,6.3-4.9,12-8.8,17
		c-3.9,5-8.7,9.2-14.6,12.4C874.7,364.4,868,366,860.3,366z M872,298.5c-3.5,0-6.5,1-9.1,3c-2.6,2-4.8,4.5-6.6,7.6
		c-1.8,3-3.1,6.4-4,10c-0.9,3.6-1.3,7.1-1.3,10.3c0,5.4,0.8,9.5,2.5,12.4c1.7,2.9,4.7,4.3,9.1,4.3c3.5,0,6.5-1,9.1-3
		c2.6-2,4.8-4.5,6.6-7.6c1.8-3,3.1-6.4,4-10c0.9-3.6,1.3-7.1,1.3-10.3c0-5.4-0.8-9.5-2.5-12.4C879.4,300,876.4,298.5,872,298.5z"/>
	<path class="st3" d="M947.6,365.3c-7.5,0-13.3-1-17.6-2.9c-4.3-1.9-7.3-4.6-9.1-8c-1.8-3.4-2.7-7.2-2.7-11.6
		c0.1-4.4,0.7-9,1.8-13.9l20-83.7l24.4-3.8l-21.9,90.7c-0.4,1.9-0.7,3.6-0.7,5.2c-0.1,1.6,0.2,3,0.9,4.2c0.6,1.2,1.7,2.2,3.2,2.9
		c1.5,0.7,3.6,1.2,6.4,1.4L947.6,365.3z"/>
	<path class="st3" d="M1049.7,280.9l-11.2,47.1c-1.5,6-1.9,12-1.3,18c0.6,6,1.8,11.4,3.6,16.1l-21,3c-1.2-2.3-2.3-4.9-3.3-7.7
		c-2.9,2.3-6.3,4.3-9.9,5.8c-3.7,1.6-7.8,2.4-12.3,2.4c-6.2,0-11.2-1.1-15-3.4c-3.8-2.3-6.7-5.3-8.6-9c-1.9-3.7-2.9-8-3.1-12.8
		c-0.2-4.8,0.4-9.8,1.7-14.8l10.7-44.7h23.5L993,325.3c-0.5,2.3-1,4.7-1.3,7.1c-0.4,2.4-0.4,4.6-0.1,6.7c0.3,2,1.1,3.7,2.4,5
		c1.3,1.3,3.4,2,6.2,2c2.4,0,4.6-0.4,6.7-1.3c2-0.9,4.2-2.4,6.5-4.6c0.2-2.6,0.6-5.4,1-8.3c0.5-2.9,1-5.5,1.5-8l10.2-43H1049.7z"/>
	<path class="st3" d="M1073.5,284.7c1.8-0.5,3.7-1.1,5.8-1.8c2-0.7,4.4-1.3,6.9-1.9c2.6-0.6,5.5-1,8.7-1.4c3.2-0.4,6.9-0.6,11.1-0.6
		c5,0,9.2,0.6,12.5,1.9c3.3,1.3,6.3,3.2,9.1,5.7c3.9-2.2,7.7-4,11.6-5.4c3.8-1.4,8.3-2.1,13.5-2.1c4.9,0,9.2,0.7,12.7,2
		c3.5,1.3,6.4,3.2,8.7,5.7c2.3,2.5,4,5.4,5,8.8c1,3.4,1.6,7.2,1.6,11.3c0,1.9-0.1,3.9-0.4,6c-0.3,2.1-0.7,4.2-1.2,6.3l-10.7,44.7
		h-23.5l10.4-43.8c0.3-1.5,0.7-3.1,1-5c0.4-1.8,0.6-3.6,0.6-5.4c0-2.9-0.7-5.5-2-7.6c-1.4-2.2-4-3.2-8-3.2c-2.2,0-4.3,0.4-6.3,1.2
		c-2,0.8-3.8,1.6-5.4,2.4c0.2,0.8,0.3,1.6,0.3,2.4c0,0.7,0,1.4,0,2c0,1.9-0.1,3.9-0.4,6c-0.3,2.1-0.7,4.2-1.2,6.3l-10.7,44.7h-23.5
		L1110,320c0.3-1.5,0.7-3.1,1-5c0.4-1.8,0.6-3.6,0.6-5.4c0-2.9-0.7-5.5-2-7.6c-1.4-2.2-4-3.2-8-3.2c-1.7,0-3.1,0.1-4.3,0.2
		c-1.2,0.2-2.5,0.4-4.1,0.7l-15.3,64.1h-23.5L1073.5,284.7z"/>
	<path class="st3" d="M1242.7,279.2c5,0,9.4,0.9,13.1,2.7c3.7,1.8,6.7,4.2,9.1,7.2c2.4,3,4.2,6.6,5.4,10.7c1.2,4.1,1.7,8.5,1.7,13.2
		c0,7.2-1.3,14.1-4,20.6c-2.7,6.5-6.3,12.1-11,16.9c-4.6,4.8-10.1,8.6-16.4,11.3c-6.3,2.8-13.1,4.2-20.5,4.2c-0.9,0-2.6,0-5-0.1
		c-2.4-0.1-5.1-0.3-8.1-0.7c-3-0.4-6.3-1.1-9.7-1.9c-3.4-0.8-6.6-2-9.7-3.5l27.3-114.5l24.4-3.8l-9.8,40.6c2.1-0.9,4.2-1.7,6.3-2.2
		C1238,279.4,1240.3,279.2,1242.7,279.2z M1222.2,346.6c3.7,0,7.1-0.9,10.4-2.7c3.3-1.8,6.1-4.2,8.4-7.2s4.2-6.4,5.6-10.2
		c1.4-3.8,2-7.7,2-11.8c0-5-0.8-9-2.5-11.8c-1.7-2.8-4.8-4.3-9.3-4.3c-1.5,0-3.4,0.3-5.8,0.8c-2.4,0.5-4.5,1.6-6.4,3.3l-10.4,43.2
		c0.6,0.1,1.2,0.2,1.7,0.3c0.5,0.1,1,0.2,1.5,0.2c0.5,0.1,1.2,0.1,1.9,0.1C1220.1,346.6,1221.1,346.6,1222.2,346.6z"/>
	<path class="st3" d="M1301.6,363.8h-23.3l19.7-82.9h23.5L1301.6,363.8z M1313,270.8c-3.3,0-6.2-1-8.8-2.9c-2.6-1.9-3.9-4.9-3.9-8.9
		c0-2.2,0.4-4.3,1.3-6.2c0.9-1.9,2.1-3.6,3.5-5c1.5-1.4,3.2-2.5,5.1-3.4c1.9-0.8,4-1.3,6.2-1.3c3.3,0,6.2,1,8.8,2.9
		c2.6,1.9,3.9,4.9,3.9,8.9c0,2.2-0.4,4.3-1.3,6.2c-0.9,1.9-2.1,3.6-3.5,5c-1.5,1.4-3.2,2.5-5.1,3.4
		C1317.2,270.4,1315.2,270.8,1313,270.8z"/>
	<path class="st3" d="M1400.6,328c-1.5,6-1.9,12-1.3,18c0.6,6,1.8,11.4,3.6,16.1l-21,3c-0.6-1.3-1.2-2.5-1.7-3.6
		c-0.5-1.2-1.1-2.5-1.6-3.9c-2.9,2.4-6.2,4.4-9.8,6c-3.6,1.6-7.6,2.4-12,2.4c-5.3,0-9.7-0.9-13.5-2.8c-3.7-1.8-6.8-4.3-9.1-7.4
		c-2.4-3.1-4.1-6.7-5.1-10.9c-1.1-4.1-1.6-8.6-1.6-13.3c0-7.2,1.3-14.1,3.9-20.5c2.6-6.4,6.1-12,10.7-16.8c4.6-4.8,10-8.5,16.1-11.3
		c6.2-2.7,12.9-4.1,20.2-4.1c0.9,0,2.6,0.1,5,0.2c2.4,0.1,5.1,0.3,8.1,0.7c3,0.4,6.2,1,9.6,1.8c3.4,0.8,6.6,2,9.6,3.5L1400.6,328z
		 M1384.2,299c-1.4-0.2-2.6-0.4-3.7-0.5c-1.1-0.1-2.4-0.2-4-0.2c-3.6,0-6.9,0.9-10,2.7c-3.1,1.8-5.8,4.1-8.1,7
		c-2.3,2.9-4.1,6.2-5.4,10c-1.3,3.8-2,7.7-2,11.8c0,5,0.8,9,2.5,12c1.7,2.9,4.8,4.4,9.3,4.4c2.4,0,4.6-0.5,6.5-1.4
		c1.9-0.9,4-2.5,6.2-4.7c0.2-2.6,0.6-5.4,1-8.3c0.5-2.9,1-5.5,1.5-8L1384.2,299z"/>
	<path class="st0" d="M1490,363.8c-4.4-12.4-9.3-24.8-14.7-37.2c-5.4-12.4-11.3-24.1-17.6-35.1l-17.3,72.3h-24.1l26.2-109.2h18.7
		c2.4,3.7,5,8,7.8,13c2.8,5,5.6,10.4,8.6,16.1c2.9,5.8,5.9,11.8,8.8,18c2.9,6.3,5.7,12.4,8.3,18.5l15.6-65.7h24.4l-26.3,109.2H1490z
		"/>
	<path class="st0" d="M1537.1,331.3c0-6.7,1.2-13.2,3.5-19.5s5.7-11.9,10-16.8c4.3-4.9,9.5-8.8,15.7-11.8c6.1-3,12.9-4.5,20.4-4.5
		c3.7,0,7.1,0.5,10.2,1.6c3.2,1.1,5.9,2.6,8.3,4.6c2.4,2,4.2,4.4,5.5,7.3c1.3,2.9,2,6.2,2,9.8c0,5.9-1.3,10.9-3.9,15
		c-2.6,4.1-6.3,7.4-10.9,10c-4.7,2.6-10.2,4.4-16.6,5.6c-6.4,1.2-13.4,1.7-21,1.7c0.7,4.4,2.3,7.5,4.8,9.4c2.5,1.8,6.4,2.8,11.7,2.8
		c3.4,0,6.8-0.3,10.2-0.9c3.5-0.6,6.7-1.4,9.8-2.6l1.7,18.4c-2.9,1.2-6.7,2.2-11.3,3.2c-4.6,0.9-9.5,1.4-14.9,1.4
		c-6.5,0-12-0.9-16.5-2.8c-4.5-1.8-8.1-4.3-10.9-7.5c-2.8-3.2-4.8-6.8-6.1-11C1537.8,340.5,1537.1,336,1537.1,331.3z M1583,297.3
		c-5.4,0-10.1,1.9-14.1,5.8c-4,3.8-6.7,8.9-8,15.2c6.5-0.2,11.8-0.8,15.8-1.7c4-0.9,7.1-2,9.3-3.2c2.2-1.3,3.7-2.6,4.4-4.1
		c0.7-1.5,1.1-2.9,1.1-4.4C1591.5,299.8,1588.7,297.3,1583,297.3z"/>
	<path class="st0" d="M1638.4,260.3l24.4-3.8l-6,24.4h26.2l-4.7,19.2h-26l-6.9,29c-0.6,2.4-1,4.7-1.2,6.8c-0.2,2.1,0.1,3.9,0.8,5.4
		c0.7,1.5,1.9,2.7,3.5,3.5c1.7,0.8,4,1.3,6.9,1.3c2.5,0,5-0.2,7.3-0.7s4.8-1.1,7.2-2l1.7,18c-3.2,1.2-6.6,2.2-10.2,3
		c-3.7,0.8-8,1.3-13.1,1.3c-7.2,0-12.9-1.1-16.9-3.2c-4-2.2-6.8-5.1-8.5-8.8c-1.7-3.7-2.4-8-2.2-12.8c0.2-4.8,0.9-9.9,2.2-15.3
		L1638.4,260.3z"/>
</g>
</svg>
