<?xml version="1.0" encoding="utf-8"?>
<!-- Generator: Adobe Illustrator 22.1.0, SVG Export Plug-In . SVG Version: 6.00 Build 0)  -->
<svg version="1.1" id="Capa_1" xmlns="http://www.w3.org/2000/svg" xmlns:xlink="http://www.w3.org/1999/xlink" x="0px" y="0px"
	 viewBox="0 0 1920 1193" style="enable-background:new 0 0 1920 1193;" xml:space="preserve">
<style type="text/css">
	.st0{fill:#FFFFFF;}
	.st1{fill:#B3B3B3;}
</style>
<g>
	<g>
		<path class="st0" d="M388.9,1171.2c-6.1,3-12.8,5.3-20.2,7.1c-7.4,1.8-16.4,2.7-27,2.7c-9.2,0-17.6-1.5-25.2-4.5
			c-7.6-3-14.1-7.3-19.5-13c-5.4-5.6-9.6-12.4-12.5-20.5c-3-8.1-4.4-17.1-4.4-27.2c0-11.5,2-23,6.1-34.4c4.1-11.4,10-21.5,18-30.5
			c7.9-8.9,17.6-16.2,29-21.8c11.5-5.6,24.6-8.4,39.6-8.4c7.1,0,14.1,0.8,20.9,2.4c6.9,1.6,14.1,4.5,21.6,8.6l-12.4,26.8
			c-6.2-3.2-11.7-5.5-16.6-6.7c-4.9-1.2-10.1-1.8-15.7-1.8c-8.4,0-16,1.7-22.7,5.1c-6.7,3.4-12.5,8-17.3,13.9
			c-4.8,5.8-8.5,12.6-11,20.3c-2.5,7.7-3.8,15.8-3.8,24.4c0,13,2.8,22.5,8.5,28.4c5.7,5.9,13.9,8.9,24.5,8.9
			c7.1,0,13.6-0.7,19.6-2.2c6-1.5,11.6-3.4,16.7-5.8L388.9,1171.2z"/>
		<path class="st0" d="M458,1181c-7.8,0-14.6-1.2-20.4-3.5c-5.8-2.4-10.5-5.7-14.3-10c-3.8-4.3-6.6-9.3-8.5-15.2
			c-1.9-5.8-2.9-12.3-2.9-19.4c0-8.9,1.4-17.7,4.3-26.6c2.9-8.9,7.1-16.8,12.7-23.9c5.6-7.1,12.5-12.9,20.6-17.4
			c8.1-4.5,17.4-6.8,27.9-6.8c7.7,0,14.4,1.2,20.3,3.5c5.8,2.4,10.6,5.7,14.4,10c3.8,4.3,6.6,9.3,8.5,15.2
			c1.9,5.8,2.9,12.3,2.9,19.4c0,8.9-1.4,17.7-4.2,26.6c-2.8,8.9-6.9,16.8-12.4,23.9c-5.5,7.1-12.3,12.9-20.5,17.4
			C478.3,1178.7,468.8,1181,458,1181z M474.4,1086.1c-4.9,0-9.2,1.4-12.9,4.2c-3.7,2.8-6.8,6.4-9.3,10.6c-2.5,4.3-4.4,9-5.7,14.1
			c-1.3,5.1-1.9,9.9-1.9,14.5c0,7.5,1.2,13.3,3.5,17.4c2.4,4.1,6.7,6.1,12.9,6.1c4.9,0,9.2-1.4,12.9-4.2c3.7-2.8,6.8-6.4,9.3-10.6
			c2.5-4.3,4.4-9,5.7-14.1c1.3-5.1,1.9-9.9,1.9-14.5c0-7.5-1.2-13.3-3.5-17.4C484.9,1088.2,480.6,1086.1,474.4,1086.1z"/>
		<path class="st0" d="M580.8,1180.1c-10.5,0-18.7-1.4-24.7-4.1c-6-2.7-10.3-6.5-12.9-11.2c-2.6-4.7-3.8-10.2-3.8-16.3
			c0.1-6.1,0.9-12.7,2.5-19.6l28.2-117.7l34.4-5.3l-30.8,127.7c-0.6,2.7-0.9,5.1-1,7.3c-0.1,2.2,0.3,4.2,1.2,5.9s2.4,3.1,4.5,4.1
			c2.1,1,5.1,1.7,9,2L580.8,1180.1z"/>
		<path class="st0" d="M724.5,1061.3l-15.7,66.3c-2.1,8.4-2.7,16.9-1.8,25.4c0.9,8.5,2.6,16.1,5.1,22.7l-29.5,4.2
			c-1.6-3.2-3.2-6.9-4.7-10.9c-4.1,3.3-8.8,6-14,8.2c-5.2,2.2-10.9,3.3-17.3,3.3c-8.7,0-15.8-1.6-21.2-4.8
			c-5.4-3.2-9.4-7.4-12.1-12.6c-2.7-5.2-4.1-11.3-4.3-18.1c-0.2-6.8,0.6-13.7,2.3-20.8l15.1-63h33l-14.9,62.5
			c-0.7,3.3-1.4,6.6-1.9,10c-0.5,3.4-0.6,6.5-0.1,9.4c0.4,2.9,1.6,5.2,3.4,7.1c1.8,1.9,4.8,2.8,8.8,2.8c3.4,0,6.5-0.6,9.4-1.9
			c2.9-1.3,5.9-3.4,9.2-6.5c0.3-3.7,0.8-7.6,1.4-11.6c0.7-4.1,1.4-7.8,2.1-11.2l14.4-60.5H724.5z"/>
		<path class="st0" d="M757.9,1066.6c2.5-0.7,5.2-1.6,8.1-2.5c2.9-1,6.1-1.8,9.8-2.7c3.6-0.8,7.7-1.5,12.2-2
			c4.5-0.5,9.7-0.8,15.6-0.8c7.1,0,13,0.9,17.6,2.7c4.7,1.8,8.9,4.4,12.7,8c5.5-3.1,10.9-5.7,16.3-7.6c5.4-2,11.7-3,19-3
			c6.9,0,12.9,0.9,17.8,2.8c4.9,1.8,9,4.5,12.3,8c3.2,3.5,5.6,7.6,7.1,12.4c1.5,4.8,2.2,10.1,2.2,15.8c0,2.7-0.2,5.5-0.6,8.4
			c-0.4,3-0.9,5.9-1.7,8.9l-15.1,63h-33l14.6-61.6c0.4-2.1,0.9-4.4,1.4-7c0.5-2.6,0.8-5.1,0.8-7.6c0-4.1-1-7.7-2.9-10.7
			c-1.9-3-5.7-4.5-11.3-4.5c-3.1,0-6.1,0.6-8.9,1.7c-2.8,1.1-5.3,2.3-7.5,3.4c0.3,1.2,0.4,2.3,0.4,3.3c0,1,0,2,0,2.9
			c0,2.7-0.2,5.5-0.6,8.4c-0.4,3-0.9,5.9-1.7,8.9l-15.1,63h-33l14.6-61.6c0.4-2.1,0.9-4.4,1.4-7c0.5-2.6,0.8-5.1,0.8-7.6
			c0-4.1-1-7.7-2.9-10.7c-1.9-3-5.7-4.5-11.3-4.5c-2.4,0-4.4,0.1-6,0.3c-1.6,0.2-3.5,0.6-5.8,1l-21.5,90.2h-33L757.9,1066.6z"/>
		<path class="st0" d="M996,1058.9c7.1,0,13.2,1.3,18.4,3.8c5.2,2.5,9.5,5.9,12.9,10.2c3.4,4.3,5.9,9.3,7.5,15.1
			c1.6,5.8,2.4,12,2.4,18.6c0,10.2-1.9,19.8-5.7,28.9c-3.8,9.1-8.9,17-15.4,23.7c-6.5,6.7-14.2,12-23.1,16
			c-8.9,3.9-18.5,5.9-28.8,5.9c-1.3,0-3.7,0-7-0.1c-3.3-0.1-7.1-0.4-11.4-1c-4.3-0.6-8.8-1.5-13.6-2.7c-4.8-1.2-9.3-2.8-13.6-4.9
			l38.3-161.2l34.4-5.3l-13.7,57.2c3-1.3,5.9-2.4,8.9-3.1C989.4,1059.2,992.6,1058.9,996,1058.9z M967.2,1153.7
			c5.2,0,10-1.3,14.6-3.8c4.6-2.5,8.5-5.9,11.9-10.1c3.3-4.2,5.9-9,7.9-14.3c1.9-5.3,2.9-10.9,2.9-16.6c0-7.1-1.2-12.6-3.5-16.6
			c-2.4-4-6.7-6-13.1-6c-2.1,0-4.8,0.4-8.1,1.1c-3.3,0.7-6.3,2.3-9,4.7l-14.6,60.7c0.9,0.1,1.7,0.3,2.3,0.4c0.7,0.1,1.4,0.3,2.1,0.3
			c0.7,0.1,1.6,0.1,2.7,0.1C964.2,1153.7,965.6,1153.7,967.2,1153.7z"/>
		<path class="st0" d="M1078.9,1177.9h-32.8l27.7-116.6h33L1078.9,1177.9z M1094.9,1047.1c-4.6,0-8.7-1.4-12.4-4.1
			s-5.5-6.9-5.5-12.5c0-3.1,0.6-6,1.9-8.8c1.3-2.7,2.9-5.1,5-7.1c2.1-2,4.5-3.6,7.2-4.8c2.7-1.2,5.7-1.8,8.8-1.8
			c4.6,0,8.7,1.4,12.4,4.1c3.7,2.7,5.5,6.9,5.5,12.5c0,3.1-0.6,6-1.9,8.8c-1.3,2.7-2.9,5.1-5,7.1c-2.1,2-4.5,3.6-7.2,4.8
			C1100.9,1046.5,1098,1047.1,1094.9,1047.1z"/>
		<path class="st0" d="M1218.1,1127.6c-2.1,8.4-2.7,16.9-1.8,25.4c0.9,8.5,2.6,16.1,5.1,22.7l-29.5,4.2c-0.9-1.8-1.7-3.5-2.4-5.1
			c-0.7-1.6-1.5-3.5-2.2-5.5c-4.1,3.4-8.7,6.2-13.7,8.4c-5,2.2-10.6,3.3-16.8,3.3c-7.4,0-13.7-1.3-19-3.9
			c-5.2-2.6-9.5-6.1-12.9-10.4c-3.3-4.4-5.7-9.5-7.2-15.3c-1.5-5.8-2.2-12.1-2.2-18.7c0-10.2,1.8-19.8,5.4-28.8
			c3.6-9,8.6-16.9,15.1-23.6c6.4-6.7,14-12,22.7-15.9c8.7-3.8,18.2-5.8,28.4-5.8c1.3,0,3.7,0.1,7,0.2c3.3,0.1,7.1,0.5,11.4,1
			c4.3,0.5,8.8,1.4,13.5,2.5c4.7,1.2,9.2,2.8,13.5,4.9L1218.1,1127.6z M1195.1,1086.8c-1.9-0.3-3.7-0.5-5.2-0.7
			c-1.6-0.1-3.4-0.2-5.7-0.2c-5,0-9.7,1.3-14.1,3.8c-4.4,2.5-8.2,5.8-11.4,9.9c-3.3,4.1-5.8,8.8-7.6,14.1
			c-1.8,5.3-2.8,10.9-2.8,16.6c0,7.1,1.2,12.7,3.5,16.8c2.4,4.1,6.7,6.2,13.1,6.2c3.4,0,6.5-0.7,9.2-2c2.7-1.3,5.7-3.5,8.8-6.6
			c0.3-3.7,0.8-7.6,1.4-11.6c0.7-4.1,1.4-7.8,2.1-11.2L1195.1,1086.8z"/>
		<path class="st0" d="M1344,1177.9c-6.2-17.4-13.1-34.9-20.7-52.3c-7.6-17.4-15.8-33.9-24.7-49.4l-24.4,101.7h-33.9l36.8-153.6
			h26.4c3.4,5.2,7.1,11.3,11,18.3c3.9,7,7.9,14.6,12.1,22.7c4.1,8.1,8.3,16.6,12.4,25.4s8.1,17.5,11.8,26l21.9-92.4h34.4l-37,153.6
			H1344z"/>
		<path class="st0" d="M1410.3,1132.2c0-9.5,1.7-18.6,5-27.5c3.3-8.9,8-16.7,14.1-23.6c6.1-6.9,13.4-12.4,22.1-16.6
			c8.6-4.2,18.2-6.3,28.7-6.3c5.2,0,10,0.7,14.4,2.2c4.4,1.5,8.3,3.6,11.6,6.4c3.3,2.8,5.9,6.2,7.8,10.3c1.8,4.1,2.8,8.7,2.8,13.9
			c0,8.3-1.8,15.3-5.5,21.1c-3.7,5.8-8.8,10.5-15.4,14.1c-6.6,3.6-14.4,6.2-23.4,7.9c-9,1.6-18.8,2.4-29.5,2.4
			c1,6.2,3.3,10.6,6.8,13.2c3.5,2.6,9,3.9,16.5,3.9c4.7,0,9.5-0.4,14.4-1.2c4.9-0.8,9.5-2,13.7-3.7l2.4,25.9
			c-4.1,1.6-9.4,3.1-15.8,4.4s-13.4,2-20.9,2c-9.2,0-16.9-1.3-23.2-3.9c-6.3-2.6-11.4-6.1-15.3-10.5c-3.9-4.4-6.8-9.6-8.5-15.5
			C1411.2,1145.2,1410.3,1138.9,1410.3,1132.2z M1474.8,1084.4c-7.5,0-14.2,2.7-19.8,8.1c-5.7,5.4-9.4,12.5-11.2,21.4
			c9.2-0.3,16.5-1.1,22.2-2.3c5.6-1.3,10-2.8,13.1-4.5c3.1-1.8,5.2-3.7,6.2-5.8c1-2.1,1.6-4.1,1.6-6.2
			C1486.8,1087.9,1482.8,1084.4,1474.8,1084.4z"/>
		<path class="st0" d="M1552.8,1032.3l34.4-5.3l-8.4,34.4h36.8l-6.6,27h-36.6l-9.8,40.8c-0.9,3.4-1.4,6.6-1.7,9.5
			c-0.2,3,0.1,5.5,1.1,7.6c1,2.1,2.6,3.8,5,5c2.4,1.2,5.6,1.8,9.8,1.8c3.5,0,7-0.3,10.3-1c3.3-0.7,6.7-1.6,10.1-2.8l2.4,25.3
			c-4.4,1.6-9.2,3-14.4,4.2c-5.2,1.2-11.3,1.8-18.4,1.8c-10.2,0-18.1-1.5-23.7-4.5c-5.6-3-9.6-7.2-12-12.4
			c-2.4-5.2-3.4-11.3-3.1-18.1s1.3-14,3.1-21.5L1552.8,1032.3z"/>
	</g>
	<g>
		<g>
			<g>
				<circle class="st0" cx="1300.4" cy="575.7" r="31.3"/>
				<circle class="st0" cx="1321.7" cy="496.5" r="31.3"/>
				<circle class="st0" cx="1326" cy="414.6" r="31.3"/>
				<circle class="st0" cx="1313.1" cy="333.6" r="31.3"/>
				<circle class="st0" cx="1238.1" cy="528" r="31.3"/>
				<circle class="st0" cx="1251.5" cy="451.8" r="31.3"/>
				<circle class="st0" cx="1246.1" cy="374.5" r="31.3"/>
				<circle class="st0" cx="1097.1" cy="450.4" r="31.3"/>
				<circle class="st0" cx="1173.1" cy="473" r="31.3"/>
				<circle class="st0" cx="1173.1" cy="397.3" r="31.3"/>
			</g>
			<g>
				<g>
					<circle class="st0" cx="1050.8" cy="318.4" r="33.3"/>
					<circle class="st0" cx="987.3" cy="280.8" r="31.3"/>
					<circle class="st0" cx="914.3" cy="273.2" r="31.3"/>
					<circle class="st0" cx="845.3" cy="298.3" r="31.3"/>
					<circle class="st0" cx="794.3" cy="351.1" r="31.3"/>
					<circle class="st0" cx="771.6" cy="420.9" r="31.3"/>
					<circle class="st0" cx="781.8" cy="493.6" r="31.3"/>
					<circle class="st0" cx="822.9" cy="554.5" r="31.3"/>
					<circle class="st0" cx="886.5" cy="591.2" r="31.3"/>
					<circle class="st0" cx="959.7" cy="596.3" r="31.3"/>
					<circle class="st0" cx="1027.8" cy="568.8" r="31.3"/>
					<circle class="st0" cx="1105.2" cy="264.1" r="31.3"/>
					<circle class="st0" cx="1044" cy="219.6" r="31.3"/>
					<circle class="st0" cx="972" cy="196.2" r="31.3"/>
					<circle class="st0" cx="896.3" cy="196.2" r="31.3"/>
					<circle class="st0" cx="824.3" cy="219.6" r="31.3"/>
					<circle class="st0" cx="763.1" cy="264.1" r="31.3"/>
					<circle class="st0" cx="718.6" cy="325.3" r="31.3"/>
					<circle class="st0" cx="695.2" cy="397.3" r="31.3"/>
					<circle class="st0" cx="695.2" cy="473" r="31.3"/>
					<circle class="st0" cx="718.6" cy="545" r="31.3"/>
					<circle class="st0" cx="763.1" cy="606.2" r="31.3"/>
					<circle class="st0" cx="824.3" cy="650.7" r="31.3"/>
					<circle class="st0" cx="896.3" cy="674.1" r="31.3"/>
					<circle class="st0" cx="972" cy="674.1" r="31.3"/>
					<circle class="st0" cx="1044" cy="650.7" r="31.3"/>
					<circle class="st0" cx="1105.2" cy="606.2" r="31.3"/>
				</g>
			</g>
		</g>
		<g>
			<g>
				<circle class="st1" cx="1211.6" cy="712.5" r="31.3"/>
				<circle class="st1" cx="1263.2" cy="648.8" r="31.3"/>
				<circle class="st1" cx="1283.7" cy="257" r="31.3"/>
				<circle class="st1" cx="1239.1" cy="188.2" r="31.3"/>
				<circle class="st1" cx="1181.1" cy="130.2" r="31.3"/>
				<circle class="st1" cx="1112.3" cy="85.6" r="31.3"/>
				<circle class="st1" cx="1035.7" cy="56.2" r="31.3"/>
				<circle class="st1" cx="954.7" cy="43.3" r="31.3"/>
				<circle class="st1" cx="872.8" cy="47.6" r="31.3"/>
				<circle class="st1" cx="793.6" cy="68.9" r="31.3"/>
				<circle class="st1" cx="720.5" cy="106.1" r="31.3"/>
				<circle class="st1" cx="656.8" cy="157.7" r="31.3"/>
				<circle class="st1" cx="605.1" cy="221.5" r="31.3"/>
				<circle class="st1" cx="567.9" cy="294.5" r="31.3"/>
				<circle class="st1" cx="546.7" cy="373.8" r="31.3"/>
				<circle class="st1" cx="542.4" cy="455.7" r="31.3"/>
				<circle class="st1" cx="555.2" cy="536.7" r="31.3"/>
				<circle class="st1" cx="584.6" cy="613.2" r="31.3"/>
				<circle class="st1" cx="629.3" cy="682" r="31.3"/>
				<circle class="st1" cx="687.3" cy="740" r="31.3"/>
				<circle class="st1" cx="756.1" cy="784.7" r="31.3"/>
				<circle class="st1" cx="832.6" cy="814.1" r="31.3"/>
				<circle class="st1" cx="913.6" cy="826.9" r="31.3"/>
				<circle class="st1" cx="995.5" cy="822.6" r="31.3"/>
				<circle class="st1" cx="1074.8" cy="801.4" r="31.3"/>
				<circle class="st1" cx="1147.8" cy="764.2" r="31.3"/>
				<circle class="st1" cx="940.6" cy="347.2" r="31.3"/>
				<circle class="st1" cx="866.8" cy="378.6" r="31.3"/>
				<circle class="st1" cx="847.5" cy="450.4" r="31.3"/>
				<circle class="st1" cx="890.2" cy="511.3" r="31.3"/>
				<circle class="st1" cx="964.3" cy="517.8" r="31.3"/>
				<circle class="st1" cx="1016.8" cy="465.2" r="31.3"/>
				<circle class="st1" cx="1010.4" cy="389.6" r="31.3"/>
				<circle class="st1" cx="934.2" cy="435.1" r="31.6"/>
				<circle class="st1" cx="1158.9" cy="659.8" r="31.3"/>
				<circle class="st1" cx="1206.6" cy="598.8" r="31.3"/>
				<circle class="st1" cx="1222.2" cy="300.8" r="31.3"/>
				<circle class="st1" cx="1181.1" cy="235.1" r="31.3"/>
				<circle class="st1" cx="1125.4" cy="181.3" r="31.3"/>
				<circle class="st1" cx="1058.3" cy="142.6" r="31.3"/>
				<circle class="st1" cx="983.9" cy="121.2" r="31.3"/>
				<circle class="st1" cx="906.5" cy="118.5" r="31.3"/>
				<circle class="st1" cx="830.7" cy="134.7" r="31.3"/>
				<circle class="st1" cx="761.1" cy="168.6" r="31.3"/>
				<circle class="st1" cx="701.8" cy="218.4" r="31.3"/>
				<circle class="st1" cx="656.2" cy="281.1" r="31.3"/>
				<circle class="st1" cx="627.2" cy="352.9" r="31.3"/>
				<circle class="st1" cx="616.4" cy="429.6" r="31.3"/>
				<circle class="st1" cx="624.5" cy="506.6" r="31.3"/>
				<circle class="st1" cx="651" cy="579.4" r="31.3"/>
				<circle class="st1" cx="694.3" cy="643.6" r="31.3"/>
				<circle class="st1" cx="751.9" cy="695.4" r="31.3"/>
				<circle class="st1" cx="820.3" cy="731.8" r="31.3"/>
				<circle class="st1" cx="895.4" cy="750.5" r="31.3"/>
				<circle class="st1" cx="972.9" cy="750.5" r="31.3"/>
				<circle class="st1" cx="1045" cy="731.8" r="31.3"/>
				<circle class="st1" cx="1105.4" cy="701.4" r="31.3"/>
			</g>
			<circle class="st1" cx="1073.9" cy="517.8" r="31.3"/>
			<circle class="st1" cx="1084.1" cy="380.4" r="33.3"/>
			<circle class="st1" cx="1149.7" cy="545" r="31.3"/>
			<circle class="st1" cx="1152.8" cy="320" r="33.3"/>
		</g>
	</g>
</g>
</svg>
