<?xml version="1.0" encoding="utf-8"?>
<!-- Generator: Adobe Illustrator 22.1.0, SVG Export Plug-In . SVG Version: 6.00 Build 0)  -->
<svg version="1.1" id="Capa_1" xmlns="http://www.w3.org/2000/svg" xmlns:xlink="http://www.w3.org/1999/xlink" x="0px" y="0px"
	 viewBox="0 0 460 500" style="enable-background:new 0 0 460 500;" xml:space="preserve">
<style type="text/css">
	.st0{fill:#123D9E;}
	.st1{fill:#FF123C;}
	.st2{fill:#FFFFFF;}
</style>
<g>
	<g>
		<g>
			<g>
				<g>
					<path class="st0" d="M366.9,349.3c-32.1-31.9-48.4-69.8-48.4-112.4v-62c0.3-47.3-31.5-78.7-58.8-91.2
						c-7.8-3.6-15.9-6.3-24.1-8.4v-4c0-19-15.5-34.5-34.5-34.5s-34.5,15.5-34.5,34.5v4.6c-7.4,2-14.7,4.6-21.7,7.8
						c-30.2,13.9-60.8,47.5-61.1,91.1v62.1c0,44.1-15.6,81.9-46.2,112.4c-1.8,1.8-2.5,4.5-1.7,7s2.9,4.3,5.4,4.7l65.5,11.3
						c12.2,2.1,23.4,3.8,34.1,5.2c12,23.6,35.7,38.7,61.5,38.7c25.8,0,49.5-15.1,61.5-38.8c10.6-1.4,21.8-3.1,33.9-5.2l65.5-11.3
						c2.5-0.4,4.6-2.3,5.4-4.7C369.4,353.8,368.8,351.1,366.9,349.3z M180.4,71.4c0-11.4,9.3-20.7,20.7-20.7
						c11.4,0,20.7,9.3,20.7,20.7v1.3c-13.7-2-27.7-1.9-41.4,0.3V71.4z M202.3,402.5c-17.5,0-33.8-8.7-44.3-22.9
						c15.4,1.6,29.8,2.4,44.2,2.4c14.4,0,28.9-0.8,44.4-2.4C236.1,393.8,219.8,402.5,202.3,402.5z M295.4,358.7
						c-13.2,2.3-25.4,4.1-36.8,5.6c0,0,0,0,0,0c-5,0.6-10,1.2-14.8,1.7c0,0-0.1,0-0.2,0c-4.4,0.4-8.7,0.8-12.9,1.1
						c-0.8,0.1-1.6,0.1-2.4,0.2c-3.7,0.2-7.3,0.4-10.9,0.6c-0.7,0-1.5,0.1-2.2,0.1c-8.6,0.3-17,0.3-25.6,0c-0.8,0-1.5-0.1-2.3-0.1
						c-3.6-0.1-7.2-0.3-10.8-0.6c-0.9-0.1-1.7-0.1-2.6-0.2c-4.1-0.3-8.3-0.6-12.6-1.1c-0.2,0-0.3,0-0.4,0c-4.8-0.5-9.6-1-14.7-1.7
						c0,0,0,0-0.1,0c-11.5-1.5-23.7-3.3-37-5.6l-52.8-9.1c27.5-31.4,41.4-69.2,41.4-112.6v-62c0.2-37.5,26.8-66.5,53.1-78.6
						c7.8-3.6,15.9-6.3,24.1-8.2c0.1,0,0.1,0,0.2,0c17-3.8,35.1-4,52.3-0.5c0.1,0,0.2,0,0.3,0c9,1.9,17.9,4.7,26.4,8.6
						c25.4,11.6,51,40.4,50.8,78.6v62.1c0,41.6,15,80.3,43.5,112.6L295.4,358.7z"/>
					<path class="st0" d="M202.3,421.8c-26.9,0-51.5-14.9-65-39.2c-9.9-1.3-20.3-3-31.5-4.9l-65.5-11.3c-4.6-0.8-8.3-4.1-9.7-8.5
						c-1.4-4.4-0.2-9.2,3.1-12.5c29.6-29.4,44.6-65.9,44.6-108.5v-62.1c0.3-46,32.5-81.4,64.3-96.1c5.9-2.7,12.1-5.1,18.5-7v-0.4
						c0-22.1,17.9-40,40-40c22,0,39.8,17.8,40,39.7c7.3,2,14.3,4.6,20.9,7.6c28.8,13.2,62.4,46.3,62.1,96.2v62
						c0,41.1,15.7,77.6,46.8,108.5l0,0c3.3,3.3,4.5,8.1,3.1,12.5c-1.4,4.5-5.1,7.7-9.7,8.5l-65.4,11.3c-11.1,1.9-21.5,3.5-31.3,4.9
						C253.9,406.8,229.2,421.8,202.3,421.8z M201.1,42.4c-16,0-29,13-29,29v8.8l-4.1,1.1c-7.2,2-14.2,4.5-20.8,7.5
						c-28.6,13.2-57.6,44.9-57.9,86.1v62.1c0,45.6-16.1,84.7-47.9,116.3c-0.4,0.4-0.5,0.9-0.3,1.4s0.6,0.9,1.1,0.9l65.5,11.3
						c12.1,2.1,23.3,3.8,33.9,5.2l2.9,0.4l1.3,2.6c11.2,22,32.9,35.7,56.6,35.7c23.7,0,45.4-13.7,56.6-35.7l1.3-2.6l2.9-0.4
						c10.6-1.4,21.7-3.1,33.7-5.2l65.5-11.3c0.5-0.1,0.9-0.5,1.1-1c0.2-0.5,0-1-0.3-1.4c-33.2-33-50.1-72.1-50.1-116.3v-62
						c0.3-44.7-29.8-74.3-55.6-86.2c-7.3-3.3-15.1-6-23.1-8.1l-4.2-1v-8.3C230,55.4,217,42.4,201.1,42.4z M202.3,408
						c-18.9,0-37.1-9.4-48.7-25.1l-7.4-10l12.4,1.3c30.9,3.2,56.8,3.2,87.4,0l12.4-1.3l-7.4,10C239.4,398.6,221.2,408,202.3,408z
						 M172.3,386.4c17.3,13.5,42.8,13.5,60.1,0C211.8,387.9,192.9,387.9,172.3,386.4z M202.3,373.6c-4.3,0-8.6-0.1-13-0.2l-1.6-0.1
						c-4.3-0.2-8-0.4-11.7-0.6l-2.6-0.2c-4.2-0.3-8.5-0.7-12.8-1.1c-5.3-0.5-10.2-1.1-15.3-1.7c-11.2-1.4-23.4-3.2-37.3-5.6
						l-62.5-10.8l6.5-7.4c26.6-30.4,40-67,40-109v-62c0.3-39.9,28.4-70.7,56.3-83.6c7.9-3.6,16.4-6.5,25.2-8.5l1.1-0.1
						c16.7-3.8,35.3-4,53.1-0.5l0.5,0c10,2.1,19.3,5.1,28,9.1c27.1,12.4,54.2,43,54,83.6v62c0,40.1,14.6,77.8,42.2,109l6.5,7.4
						l-62.5,10.8c-13.4,2.3-25.6,4.2-37.1,5.6c-5.1,0.6-10.1,1.2-15,1.7c-4.6,0.5-8.9,0.8-13.2,1.1l-2.5,0.2
						c-3.7,0.2-7.4,0.4-11.1,0.6l-2.3,0.1C210.9,373.6,206.6,373.6,202.3,373.6z M66.5,345.8l43.5,7.5c13.8,2.4,25.8,4.2,36.7,5.6
						c5,0.6,9.9,1.2,14.6,1.6c4.7,0.5,8.8,0.8,12.9,1.1l2.6,0.2c3.5,0.2,7.1,0.4,10.6,0.5l2.2,0.1c8.5,0.3,16.8,0.3,25.3,0l1.4-0.1
						c4.4-0.2,8-0.4,11.6-0.6l2.4-0.2c4.2-0.3,8.4-0.7,12.8-1.1c4.9-0.5,9.8-1,14.8-1.7c11.4-1.4,23.4-3.3,36.6-5.6l0,0l43.4-7.5
						c-25.3-31.8-38.7-69.2-38.7-108.9v-62.1c0.2-35.7-23.7-62.7-47.6-73.6c-7.7-3.5-15.8-6.2-24.3-8l-0.1,0L226,93
						c-16.3-3.3-33.6-3.2-49.8,0.5l-1.1,0.1c-7.2,1.7-14.9,4.3-22.1,7.7c-24.7,11.4-49.6,38.5-49.9,73.6v62
						C103.1,278.3,90.8,314.8,66.5,345.8z M174.9,79.4v-8c0-14.4,11.8-26.2,26.2-26.2c14.4,0,26.2,11.8,26.2,26.2V79l-6.3-0.9
						c-13.3-1.9-26.7-1.8-39.7,0.3L174.9,79.4z M201.1,56.2c-6.7,0-12.4,4.3-14.4,10.4c9.5-1,19.1-1.1,28.7-0.2
						C213.3,60.4,207.7,56.2,201.1,56.2z"/>
				</g>
				<g>
					<path class="st0" d="M245.3,115.1c-26.7-12.2-59.5-12.2-86,0c-15.1,7-40.8,27.4-41,59.7c0,3.8,3,6.9,6.9,6.9c0,0,0,0,0,0
						c3.8,0,6.9-3.1,6.9-6.9c0.2-25.4,20.8-41.6,33-47.2c23-10.6,51.4-10.6,74.5,0c3.5,1.6,7.6,0.1,9.1-3.4
						C250.3,120.8,248.8,116.7,245.3,115.1z"/>
					<path class="st0" d="M125.2,187.2c-6.9,0-12.4-5.6-12.4-12.5c0.2-35.1,27.9-57.1,44.2-64.7c27.8-12.8,62.5-12.8,90.6,0
						c3,1.4,5.3,3.8,6.5,6.9c1.2,3.1,1,6.5-0.3,9.5c-2.8,6.2-10.2,9-16.4,6.1c-21.7-9.9-48.4-9.9-69.9,0
						c-11,5.1-29.7,19.7-29.8,42.3C137.6,181.7,132,187.2,125.2,187.2z M202.2,111.5c-14.1,0-28.1,2.9-40.6,8.6
						c-14,6.4-37.6,25.2-37.8,54.7c0,1.5,2.8,1.5,2.8,0c0.2-28.1,22.8-46,36.2-52.2c24.3-11.2,54.6-11.2,79.1,0
						c0.6,0.3,1.6-0.1,1.8-0.7l-0.7-1.8C230.4,114.3,216.3,111.5,202.2,111.5z"/>
				</g>
			</g>
		</g>
		<circle class="st1" cx="343.1" cy="373.2" r="94.8"/>
	</g>
	<g>
		<path class="st2" d="M313.2,398l11.5-1.2c0.9,6.9,2.9,12.1,6,15.5c3.1,3.4,6.8,5.1,10.9,5.1c5.2,0,9.7-2.4,13.4-7.2
			c3.8-4.8,5.6-11.3,5.6-19.6c0-7.8-1.8-13.8-5.5-18.1c-3.6-4.3-8.2-6.4-13.7-6.4c-3.3,0-6.4,0.9-9.3,2.8c-2.9,1.9-5.2,4.5-6.9,7.8
			l-10.3-1.6l8.7-55.9h44.3v12.8h-35.6l-4.8,29.3c5.3-4.6,10.9-6.9,16.8-6.9c7.5,0,14,3.2,19.5,9.5c5.5,6.4,8.3,14.9,8.3,25.7
			c0,10.6-2.8,19.8-8.3,27.4c-5.5,7.6-12.9,11.4-22.2,11.4c-7.7,0-14.2-2.7-19.6-8.1C317,414.9,314,407.5,313.2,398z"/>
	</g>
</g>
</svg>
